# xmcd
#
# Track frame offsets: 
#        187
#        17650
#        31117
#        42610
#        55707
#        68200
#        81140
#        94210
#        106665
#
# Disc length: 1729 seconds
#
# Revision: 4
# Processed by: cddbd v1.5.2PL0 Copyright (c) Steve Scherf et al.
# Submitted via: ExactAudioCopy v0.99pb5
#
DISCID=6806bf09
DTITLE=Omar And The Howlers - I Told You So
DYEAR=1984
DGENRE=
TTITLE0=Border Girl
TTITLE1=Give Me A Chance
TTITLE2=Shake For Me
TTITLE3=Magic Man
TTITLE4=Rocket To Nowhere
TTITLE5=I Told You So
TTITLE6=Ice Cold Woman
TTITLE7=I´M Wise To You Baby
TTITLE8=East Side Blues
EXTD=
EXTT0=
EXTT1=
EXTT2=
EXTT3=
EXTT4=
EXTT5=
EXTT6=
EXTT7=
EXTT8=
PLAYORDER=
